# xmcd CD database file
#
# Track frame offsets:
#	150
#	16280
#	37450
#	53530
#
# Disc length: 994 seconds
#
# Revision: 1
# Processed by: cddbd v1.5PL3 Copyright (c) Steve Scherf et al.
# Submitted via: CDex 1.51
#
DISCID=2d03e004
DTITLE=天地無用！の人々 - やめられない やめられない
DYEAR=1997
DGENRE=Anime
TTITLE0=やめられない やめられない
TTITLE1=天地無用!音頭
TTITLE2=やめられない やめられない <オリジナルカラオケ>
TTITLE3=天地無用!音頭 <オリジナルカラオケ>
EXTD=YEAR: 1997
EXTT0=
EXTT1=
EXTT2=
EXTT3=
PLAYORDER=
